<svg width="18" height="26" viewBox="0 0 18 26" fill="none" xmlns="http://www.w3.org/2000/svg">
<g clip-path="url(#clip0_394_225)">
<rect width="18" height="25.4819" fill="#00A1E9"/>
<path d="M4.4113 2.92528V1.19312H1.29413C0.952783 1.19312 0.619436 1.33125 0.378423 1.57227C0.137774 1.81328 0 2.14699 0 2.48761V24.1875C0 24.5285 0.137774 24.8622 0.378787 25.1028C0.6198 25.3442 0.952783 25.4824 1.29449 25.4824H16.7059C17.0465 25.4824 17.3806 25.3442 17.6205 25.1028C17.8615 24.8622 18 24.5288 18 24.1875V2.48761C18 2.14663 17.8615 1.81328 17.6205 1.57227C17.3802 1.33125 17.0465 1.19312 16.7059 1.19312H13.7737V2.92528H16.7059V23.515H1.29413V2.92528H4.41094H4.4113Z" fill="#015581"/>
<path d="M12.9794 1.19312H5.2052V2.92528H12.9794V1.19312Z" fill="#015581"/>
<path d="M1.29407 2.92529V23.515H16.7054V2.92529H13.7733V4.15762C13.7733 4.26195 13.7311 4.3641 13.6573 4.43826C13.5828 4.51205 13.481 4.55458 13.3763 4.55458H4.80784C4.70351 4.55458 4.60063 4.51242 4.52684 4.43826C4.45305 4.3641 4.41088 4.26195 4.41088 4.15762V2.92529H1.29407ZM15.4106 19.693H2.58856V18.3156H15.4106V19.693ZM15.4106 16.5758H2.58856V15.1988H15.4106V16.5758ZM15.4106 13.459H2.58856V12.082H15.4106V13.459ZM15.4106 10.3422H2.58856V8.96443H15.4106V10.3422ZM15.4106 5.84762V7.22499H2.58856V5.84762H15.4106Z" fill="white"/>
<path d="M12.9794 2.92529H5.2052V3.76102H12.9794V2.92529Z" fill="white"/>
<path d="M4.80822 -2.69205e-06C4.70389 -2.69205e-06 4.60101 0.0421655 4.52722 0.116323C4.45342 0.190118 4.41125 0.292267 4.41125 0.39696V4.15829C4.41125 4.26262 4.45342 4.36477 4.52722 4.43893C4.60101 4.51272 4.70389 4.55525 4.80822 4.55525H13.3767C13.4814 4.55525 13.5832 4.51308 13.6577 4.43893C13.7315 4.36477 13.7737 4.26262 13.7737 4.15829V0.396596C13.7737 0.292267 13.7315 0.189754 13.6577 0.11596C13.5832 0.041802 13.4814 -0.000366211 13.3767 -0.000366211H4.80822V-2.69205e-06ZM12.9794 1.19307V3.76096H5.20518V0.793923H12.9794V1.19307Z" fill="#00A1E9"/>
<path d="M15.4107 5.84753H2.58862V7.22491H15.4107V5.84753Z" fill="#00A1E9"/>
<path d="M15.4107 8.96472H2.58862V10.3425H15.4107V8.96472Z" fill="#00A1E9"/>
<path d="M15.4107 12.0819H2.58862V13.4589H15.4107V12.0819Z" fill="#00A1E9"/>
<path d="M15.4107 15.1987H2.58862V16.5757H15.4107V15.1987Z" fill="#00A1E9"/>
<path d="M15.4107 18.3156H2.58862V19.6929H15.4107V18.3156Z" fill="#00A1E9"/>
</g>
<defs>
<clipPath id="clip0_394_225">
<rect width="18" height="25.4819" fill="white"/>
</clipPath>
</defs>
</svg>
