<svg width="35" height="35" viewBox="0 0 35 35" fill="none" xmlns="http://www.w3.org/2000/svg">
<rect width="9.8131" height="10.0136" rx="4" fill="#282828"/>
<rect x="12.2429" width="9.8131" height="10.0136" rx="4" fill="#282828"/>
<rect x="24.4858" width="10.514" height="10.0136" rx="4" fill="#282828"/>
<rect x="24.4858" y="12.4932" width="10.514" height="10.0136" rx="4" fill="#282828"/>
<rect x="12.2429" y="12.4932" width="9.8131" height="10.0136" rx="4" fill="#282828"/>
<rect y="12.4932" width="9.8131" height="10.0136" rx="4" fill="#282828"/>
<rect y="24.9863" width="9.8131" height="10.0136" rx="4" fill="#282828"/>
<rect x="12.2429" y="24.9863" width="9.8131" height="10.0136" rx="4" fill="#282828"/>
<path d="M24.4858 28.9863C24.4858 26.7772 26.2767 24.9863 28.4858 24.9863H30.9999C33.209 24.9863 34.9999 26.7772 34.9999 28.9863V30.9999C34.9999 33.2091 33.209 35 30.9999 35H28.4858C26.2767 35 24.4858 33.2091 24.4858 31V28.9863Z" fill="#282828"/>
</svg>
